<svg id="Layer_1" data-name="Layer 1" xmlns="http://www.w3.org/2000/svg" viewBox="0 0 156.96 115.88"><defs><style>.cls-1{fill:#fff;}</style></defs><title>logo_hbo</title><path class="cls-1" d="M232.86,311.35H215.67V286.8H204.52v24.55H186.87l-.06-63.28h17.71v23.54h11.16V248.07h17.19Zm78.76.3c17.73,0,32.15-14.73,32.14-32.46a32.14,32.14,0,0,0-61.13-13.9c0-7.9-7.76-17.22-16.87-17.23H236.44v63.27h27.35c11,0,18.87-9.55,18.89-17.75C285.19,298.75,293.92,311.65,311.63,311.65ZM261.5,285.9c2.53,0,4.52,2.5,4.52,5.35s-2,5.35-4.52,5.35h-8.7V285.9Zm0-23.76c2.53,0,4.52,2.5,4.52,5.35s-2,5.35-4.52,5.35h-8.7V262.15Zm11.58,17c2-.25,5.31-2.53,6.49-4a29.23,29.23,0,0,0,0,8.83C278.29,282,275.13,279.45,273.11,279.2Zm22.43,0a16.1,16.1,0,1,1,16.1,16.11A16.1,16.1,0,0,1,295.53,279.2Zm16.1,12.66A12.66,12.66,0,1,0,299,279.2,12.66,12.66,0,0,0,311.64,291.86Z" transform="translate(-186.81 -247.01)"/><rect class="cls-1" y="73.99" width="155.44" height="1.5"/><path class="cls-1" d="M340.1,255a2.36,2.36,0,0,1-.95-.19,2.39,2.39,0,0,1-.76-.52,2.42,2.42,0,0,1-.51-.76,2.31,2.31,0,0,1-.19-.93h0a2.31,2.31,0,0,1,.19-.93,2.43,2.43,0,0,1,1.28-1.29,2.44,2.44,0,0,1,1.9,0,2.41,2.41,0,0,1,.76.52,2.5,2.5,0,0,1,.51.76,2.34,2.34,0,0,1,.19.93h0a2.33,2.33,0,0,1-.19.93,2.49,2.49,0,0,1-.51.77,2.45,2.45,0,0,1-.77.52A2.36,2.36,0,0,1,340.1,255Zm0-.24a2.12,2.12,0,0,0,.86-.17,2.2,2.2,0,0,0,.69-.47,2.2,2.2,0,0,0,.62-1.53h0a2.18,2.18,0,0,0-.17-.84,2.13,2.13,0,0,0-2-1.32,2.11,2.11,0,0,0-.86.17,2.16,2.16,0,0,0-1.31,2h0a2.17,2.17,0,0,0,.16.84,2.13,2.13,0,0,0,2,1.32Zm-1-3.5h1.13a1,1,0,0,1,.77.27.69.69,0,0,1,.21.53h0a.73.73,0,0,1-.16.5.85.85,0,0,1-.42.26l.68,1h-.57l-.61-.87h-.53v.87h-.48Zm1.11,1.23a.57.57,0,0,0,.37-.11.35.35,0,0,0,.13-.29h0a.35.35,0,0,0-.13-.29.6.6,0,0,0-.37-.1h-.63v.8Z" transform="translate(-186.81 -247.01)"/><path class="cls-1" d="M187.19,336.41h18.87v2.72H190.14V348h14.25v2.72H190.14v9.1h16.11v2.72H187.19Z" transform="translate(-186.81 -247.01)"/><path class="cls-1" d="M221.21,362.89a15.44,15.44,0,0,1-5.73-1,16.33,16.33,0,0,1-4.94-3.15l1.83-2.16a15.37,15.37,0,0,0,4.14,2.78,11.88,11.88,0,0,0,4.81.91,6.65,6.65,0,0,0,4.23-1.25,3.89,3.89,0,0,0,1.59-3.19v-.08a4.22,4.22,0,0,0-.3-1.62,3.34,3.34,0,0,0-1-1.32,7.48,7.48,0,0,0-2.08-1.08,26.67,26.67,0,0,0-3.38-.93,27.19,27.19,0,0,1-3.91-1.12,9.73,9.73,0,0,1-2.75-1.53,5.62,5.62,0,0,1-1.61-2.09,6.93,6.93,0,0,1-.52-2.8v-.07a6.4,6.4,0,0,1,.63-2.83,6.67,6.67,0,0,1,1.79-2.26,8.74,8.74,0,0,1,2.72-1.49,10.46,10.46,0,0,1,3.43-.54,14.29,14.29,0,0,1,5,.8,15.29,15.29,0,0,1,4.16,2.41l-1.72,2.28a12.75,12.75,0,0,0-3.67-2.16,11.19,11.19,0,0,0-3.86-.67,6.26,6.26,0,0,0-4.07,1.21,3.72,3.72,0,0,0-1.49,3V343a4.32,4.32,0,0,0,.3,1.66,3.35,3.35,0,0,0,1.08,1.34,7.86,7.86,0,0,0,2.16,1.12,25.78,25.78,0,0,0,3.54,1,14.94,14.94,0,0,1,6.43,2.67,5.83,5.83,0,0,1,2.07,4.72v.07a6.85,6.85,0,0,1-.66,3,7,7,0,0,1-1.83,2.33,8.2,8.2,0,0,1-2.81,1.49A11.74,11.74,0,0,1,221.21,362.89Z" transform="translate(-186.81 -247.01)"/><path class="cls-1" d="M236.13,336.41h9.77a13.15,13.15,0,0,1,4,.58,9.2,9.2,0,0,1,3.1,1.64,7.12,7.12,0,0,1,2,2.59,8.35,8.35,0,0,1,.69,3.47v.07a7.7,7.7,0,0,1-3,6.38,9.67,9.67,0,0,1-3.26,1.62,14.14,14.14,0,0,1-4,.54h-6.34v9.21h-2.95Zm9.42,14.17a9.9,9.9,0,0,0,3-.41,6.86,6.86,0,0,0,2.26-1.17,5.16,5.16,0,0,0,1.46-1.82,5.33,5.33,0,0,0,.5-2.32v-.08a4.93,4.93,0,0,0-1.93-4.22,8.36,8.36,0,0,0-5.11-1.43h-6.62v11.45Z" transform="translate(-186.81 -247.01)"/><path class="cls-1" d="M268.13,336.22h2.76l11.9,26.3h-3.17l-3.06-6.9H262.35l-3.1,6.9h-3ZM275.41,353l-5.93-13.32-6,13.32Z" transform="translate(-186.81 -247.01)"/><path class="cls-1" d="M288,336.41h2.76l16.45,20.93V336.41h2.87v26.11h-2.35l-16.86-21.41v21.41H288Zm3-2.46a6.7,6.7,0,0,1,1.82-3,4.33,4.33,0,0,1,2.85-.9,7,7,0,0,1,1.72.22q.89.22,1.77.5l1.67.52a4.91,4.91,0,0,0,1.43.24,2.37,2.37,0,0,0,1.5-.41,4.59,4.59,0,0,0,1.06-1.42l2.31.49a6.72,6.72,0,0,1-1.82,3,4.34,4.34,0,0,1-2.85.89,6.49,6.49,0,0,1-1.72-.24q-.89-.24-1.77-.52l-1.67-.5a5.27,5.27,0,0,0-1.43-.22,2.37,2.37,0,0,0-1.5.41,4.58,4.58,0,0,0-1.06,1.42Z" transform="translate(-186.81 -247.01)"/><path class="cls-1" d="M327.14,336.22h2.76l11.9,26.3h-3.17l-3.06-6.9H321.36l-3.1,6.9h-3ZM334.42,353l-5.93-13.32-6,13.32Z" transform="translate(-186.81 -247.01)"/></svg>